<svg xmlns="http://www.w3.org/2000/svg" width="256" height="256" viewBox="0 0 100 100"><rect width="100" height="100" rx="0" fill="#d1ccb0"></rect><path d="M21.78 78.35L11.55 78.35L11.55 21.65L28.85 21.65L33.60 56.24L38.35 21.65L55.77 21.65L55.77 78.35L45.41 78.35L45.41 37.49L38.88 78.35L28.71 78.35L21.78 37.49L21.78 78.35ZM72.47 78.88Q66.34 78.88 63.33 74.55Q60.33 70.23 60.33 61.45L60.33 61.45L60.33 37.03Q60.33 29.18 63.83 25.15Q67.33 21.12 74.25 21.12L74.25 21.12Q79.87 21.12 82.97 23.37Q86.07 25.61 87.26 29.90Q88.45 34.19 88.45 40.92L88.45 40.92L77.36 40.92L77.36 35.84Q77.36 33.80 76.80 32.67Q76.23 31.55 74.78 31.55L74.78 31.55Q71.55 31.55 71.55 35.78L71.55 35.78L71.55 63.23Q71.55 65.81 72.21 67.13Q72.87 68.45 74.52 68.45L74.52 68.45Q76.17 68.45 76.83 67.13Q77.49 65.81 77.49 63.23L77.49 63.23L77.49 55.11L74.45 55.11L74.45 45.35L88.31 45.35L88.31 78.35L83.76 78.35L81.84 73.59Q78.81 78.88 72.47 78.88L72.47 78.88Z" fill="#000000"></path></svg>